<svg version="1.1" id="Capa_1" xmlns="http://www.w3.org/2000/svg" xmlns:xlink="http://www.w3.org/1999/xlink" x="0px" y="0px" viewBox="0 0 60 60" style="enable-background:new 0 0 60 60;" xml:space="preserve"><g><path d="M6,0v60h48V0H6z M51.172,2l-0.119,0.231c-0.252,0.491-0.059,1.094,0.433,1.347c0.146,0.075,0.302,0.11,0.456,0.11c0.02,0,0.039-0.007,0.059-0.008v53.001c-0.371-0.175-0.823-0.118-1.13,0.189s-0.364,0.759-0.189,1.13H8V4.762L8.761,6.24c0.178,0.345,0.527,0.542,0.891,0.542c0.154,0,0.311-0.035,0.457-0.11c0.49-0.253,0.684-0.856,0.432-1.348L9.625,3.546C9.372,3.055,8.769,2.863,8.277,3.114C8.168,3.171,8.078,3.25,8,3.336V2H51.172z"></path><path d="M43.247,19.583c0.146,0.075,0.303,0.11,0.457,0.11c0.363,0,0.713-0.198,0.891-0.542l0.915-1.778c0.252-0.491,0.059-1.095-0.432-1.348c-0.491-0.252-1.095-0.059-1.348,0.432l-0.915,1.778C42.563,18.727,42.757,19.33,43.247,19.583z"></path><path d="M48.738,8.913c0.146,0.075,0.303,0.11,0.457,0.11c0.363,0,0.713-0.198,0.891-0.542l0.915-1.778c0.252-0.491,0.059-1.095-0.432-1.348c-0.492-0.253-1.094-0.059-1.348,0.432l-0.915,1.778C48.055,8.057,48.248,8.66,48.738,8.913z"></path><path d="M45.993,14.248c0.146,0.075,0.303,0.11,0.457,0.11c0.363,0,0.713-0.198,0.891-0.542l0.915-1.778c0.252-0.491,0.059-1.095-0.432-1.348c-0.492-0.252-1.094-0.058-1.348,0.432L45.562,12.9C45.31,13.392,45.503,13.995,45.993,14.248z"></path><path d="M38.479,21h2c0.553,0,1-0.447,1-1s-0.447-1-1-1h-2c-0.553,0-1,0.447-1,1S37.927,21,38.479,21z"></path><path d="M16.594,20.893L16.881,21H19c0.553,0,1-0.447,1-1s-0.447-1-1-1h-1.799c-0.454-0.093-0.916,0.138-1.11,0.571C15.864,20.075,16.09,20.667,16.594,20.893z"></path><path d="M23,21h2c0.553,0,1-0.447,1-1s-0.447-1-1-1h-2c-0.553,0-1,0.447-1,1S22.447,21,23,21z"></path><path d="M13.337,15.132l0.915,1.778c0.178,0.345,0.527,0.542,0.891,0.542c0.154,0,0.311-0.035,0.457-0.11c0.49-0.253,0.684-0.856,0.432-1.348l-0.915-1.778c-0.253-0.49-0.855-0.684-1.348-0.432C13.278,14.037,13.085,14.641,13.337,15.132z"></path><path d="M10.591,9.797l0.915,1.778c0.178,0.345,0.527,0.542,0.891,0.542c0.154,0,0.311-0.035,0.457-0.11c0.49-0.253,0.684-0.856,0.432-1.348L12.37,8.881c-0.252-0.49-0.856-0.684-1.348-0.432C10.532,8.702,10.339,9.306,10.591,9.797z"></path><path d="M48.042,52.628c-0.391-0.391-1.023-0.391-1.414,0s-0.391,1.023,0,1.414l1.414,1.414c0.195,0.195,0.451,0.293,0.707,0.293s0.512-0.098,0.707-0.293c0.391-0.391,0.391-1.023,0-1.414L48.042,52.628z"></path><path d="M14.957,49.629l-1.414,1.414c-0.391,0.391-0.391,1.023,0,1.414c0.195,0.195,0.451,0.293,0.707,0.293s0.512-0.098,0.707-0.293l1.414-1.414c0.391-0.391,0.391-1.023,0-1.414S15.348,49.238,14.957,49.629z"></path><path d="M27.12,48h-2c-0.553,0-1,0.447-1,1s0.447,1,1,1h2c0.553,0,1-0.447,1-1S27.673,48,27.12,48z"></path><path d="M33.12,48h-2c-0.553,0-1,0.447-1,1s0.447,1,1,1h2c0.553,0,1-0.447,1-1S33.673,48,33.12,48z"></path><path d="M10.715,53.871L9.3,55.286c-0.391,0.391-0.391,1.023,0,1.414c0.195,0.195,0.451,0.293,0.707,0.293s0.512-0.098,0.707-0.293l1.415-1.415c0.391-0.391,0.391-1.023,0-1.414S11.105,53.48,10.715,53.871z"></path><path d="M18.12,49c0,0.553,0.447,1,1,1h2c0.553,0,1-0.447,1-1s-0.447-1-1-1h-2C18.567,48,18.12,48.447,18.12,49z"></path><path d="M43.8,51.214c0.195,0.195,0.451,0.293,0.707,0.293s0.512-0.098,0.707-0.293c0.391-0.391,0.391-1.023,0-1.414l-1.415-1.415c-0.391-0.391-1.023-0.391-1.414,0s-0.391,1.023,0,1.414L43.8,51.214z"></path><path d="M37.12,50h2c0.553,0,1-0.447,1-1s-0.447-1-1-1h-2c-0.553,0-1,0.447-1,1S36.567,50,37.12,50z"></path><path d="M26.143,16.515L28.834,21l-2.691,4.485c-0.237,0.395-0.156,0.876,0.148,1.194C25.497,27.564,25,28.721,25,30c0,2.757,2.243,5,5,5s5-2.243,5-5c0-1.279-0.497-2.436-1.29-3.321c0.303-0.318,0.385-0.799,0.148-1.194L31.166,21l2.691-4.485c0.237-0.395,0.156-0.876-0.148-1.194C34.503,14.435,35,13.279,35,12c0-2.757-2.243-5-5-5s-5,2.243-5,5c0,1.279,0.497,2.435,1.29,3.321C25.987,15.638,25.906,16.12,26.143,16.515z M30,33c-1.654,0-3-1.346-3-3s1.346-3,3-3s3,1.346,3,3S31.654,33,30,33z M31.361,25.212C30.925,25.088,30.475,25,30,25s-0.925,0.088-1.361,0.212L30,22.944L31.361,25.212z M28.639,16.788C29.075,16.912,29.525,17,30,17s0.925-0.088,1.361-0.212L30,19.056L28.639,16.788z M30,9c1.654,0,3,1.346,3,3s-1.346,3-3,3s-3-1.346-3-3S28.346,9,30,9z"></path></g></svg>