<svg version="1.1" id="Layer_1" xmlns="http://www.w3.org/2000/svg" xmlns:xlink="http://www.w3.org/1999/xlink" x="0px" y="0px" viewBox="0 0 512.001 512.001" style="enable-background:new 0 0 512.001 512.001;" xml:space="preserve"><g><g><path d="M134.931,486.036l-0.096-0.096c-3.87-3.955-10.214-4.024-14.167-0.154c-3.955,3.869-4.024,10.213-0.154,14.167l0.172,0.175c1.96,1.982,4.54,2.972,7.123,2.972c2.546,0,5.092-0.965,7.045-2.896C138.787,496.313,138.821,489.97,134.931,486.036z"></path></g></g><g><g><path d="M256.24,243.322l-0.267-0.002c-0.026,0-0.053,0-0.079,0c-5.497,0-9.974,4.435-10.016,9.941c-0.043,5.532,4.407,10.051,9.94,10.094l0.114,0.001c0.053,0,0.104,0.001,0.157,0.001c5.461,0,9.93-4.384,10.014-9.864C266.188,247.962,261.772,243.407,256.24,243.322z"></path></g></g><g><g><path d="M257.717,64.076l-0.19-0.001c-0.026,0-0.053,0-0.079,0c-5.497,0-9.974,4.435-10.016,9.941c-0.043,5.533,4.407,10.052,9.94,10.095l0.19,0.001c0.026,0,0.053,0,0.079,0c5.497,0,9.974-4.435,10.016-9.941C267.7,68.638,263.25,64.119,257.717,64.076z"></path></g></g><g><g><path d="M478.692,365.145V328.7c17.992-4.776,31.292-21.196,31.293-40.668c0-23.2-18.877-42.075-42.077-42.075c-0.001,0-0.001,0-0.001,0c-10.861,0-21.088,4.099-28.937,11.548l-36.915-21.313c1.28-4.02,1.976-8.298,1.977-12.737c0-19.749-13.682-36.355-32.063-40.861v-35.328c18.381-4.506,32.063-21.112,32.063-40.862c0-23.2-18.877-42.075-42.077-42.074c-0.001,0-0.001,0-0.001,0c-10.384,0-20.19,3.745-27.892,10.582l-36.79-21.241c4.152-14.358,0.41-30.243-10.717-41.37c-16.404-16.405-43.098-16.404-59.504,0.001c-10.789,10.789-14.565,26.412-10.881,40.532l-38.245,22.08c-7.428-6.58-17.184-10.586-27.864-10.585c-0.001,0-0.001,0-0.001,0c-11.237,0-21.804,4.377-29.75,12.322c-7.949,7.948-12.326,18.513-12.326,29.751c0,0,0,0,0,0.001c0,11.237,4.378,21.804,12.326,29.751c5.524,5.524,12.314,9.317,19.715,11.12v35.306c-7.401,1.803-14.191,5.596-19.715,11.119c-7.949,7.948-12.326,18.513-12.326,29.751c0,0,0,0,0,0.001c0,4.524,0.721,8.934,2.088,13.114l-35.548,20.523c-7.668-8.042-18.473-13.068-30.436-13.068c-0.001,0-0.001,0-0.001,0c-11.238,0-21.804,4.377-29.75,12.323c-7.948,7.948-12.324,18.513-12.326,29.751c0,11.239,4.378,21.805,12.326,29.751c5.533,5.533,12.337,9.329,19.751,11.128v37.94c-7.415,1.799-14.219,5.595-19.751,11.128C6.39,383.996,2.014,394.561,2.012,405.8c0,11.239,4.378,21.805,12.326,29.751c7.948,7.948,18.514,12.323,29.751,12.323c11.031,0,21.08-4.274,28.591-11.244l36.842,21.271c-0.556,1.869-0.988,3.793-1.278,5.766c-0.806,5.474,2.977,10.564,8.451,11.371c5.469,0.81,10.564-2.977,11.371-8.451c1.578-10.712,10.951-18.788,21.805-18.788c12.152,0,22.039,9.886,22.04,22.038c0,10.806-7.717,19.945-18.348,21.732c-5.456,0.918-9.137,6.084-8.219,11.541c0.823,4.895,5.064,8.359,9.868,8.359c0.552,0,1.111-0.045,1.673-0.14c20.316-3.415,35.063-20.865,35.063-41.492c0-4.075-0.594-8.014-1.68-11.743l34.171-19.729c0.622,0.711,1.261,1.411,1.936,2.085c7.948,7.948,18.513,12.323,29.751,12.323c12.12,0,23.053-5.158,30.739-13.387l34.513,19.318c-0.994,3.612-1.518,7.375-1.518,11.222c0,11.238,4.378,21.804,12.326,29.751s18.513,12.323,29.751,12.323c23.2,0,42.076-18.875,42.077-42.076c0-3.996-0.572-7.859-1.618-11.525l37.193-21.473c7.764,7.082,17.743,10.961,28.321,10.96c23.2,0,42.076-18.875,42.077-42.076C509.984,386.338,496.684,369.919,478.692,365.145z M452.324,272.449c4.164-4.163,9.698-6.455,15.584-6.455c12.152,0,22.039,9.886,22.04,22.038c0,12.152-9.888,22.038-22.04,22.039c-5.886,0-11.42-2.292-15.583-6.455c-4.163-4.163-6.456-9.698-6.456-15.583C445.868,282.146,448.161,276.612,452.324,272.449z M383.995,223.455c0,12.152-9.888,22.038-22.04,22.039c-5.886,0-11.42-2.292-15.583-6.455c-4.163-4.163-6.456-9.698-6.456-15.583s2.293-11.42,6.456-15.582c4.164-4.163,9.698-6.455,15.584-6.455C374.108,201.418,383.994,211.304,383.995,223.455z M346.37,90.824c4.164-4.163,9.698-6.455,15.584-6.455c12.152,0,22.039,9.886,22.04,22.037c0,12.152-9.888,22.038-22.04,22.039c-5.886,0-11.42-2.292-15.583-6.455c-4.163-4.163-6.456-9.698-6.456-15.583C339.915,100.52,342.207,94.986,346.37,90.824z M192.138,106.406c0-5.27-0.983-10.312-2.76-14.964l37.065-21.399c1.432,0.739,3.014,1.129,4.611,1.129c2.078,0,4.174-0.644,5.969-1.979c4.441-3.3,5.365-9.577,2.065-14.017c-6.459-8.69-5.542-21.029,2.132-28.702c8.593-8.594,22.574-8.594,31.168-0.001c7.64,7.641,8.647,19.56,2.393,28.341c-3.21,4.507-2.158,10.763,2.348,13.973c2.625,1.869,5.841,2.283,8.705,1.422l36.784,21.238c-1.792,4.717-2.74,9.766-2.74,14.963c0,11.237,4.378,21.804,12.326,29.751c5.527,5.527,12.323,9.322,19.728,11.123v35.3c-7.406,1.801-14.201,5.596-19.729,11.122c-7.948,7.948-12.326,18.513-12.326,29.751c0,4.485,0.709,8.86,2.053,13.008l-35.621,20.566c-3.146-1.296-6.87-0.968-9.799,1.209c-4.441,3.3-5.365,9.577-2.065,14.017c6.459,8.69,5.542,21.029-2.132,28.702c-8.594,8.593-22.575,8.593-31.168,0.001c-7.64-7.641-8.647-19.56-2.393-28.341c3.21-4.507,2.158-10.763-2.349-13.971c-2.944-2.097-6.632-2.364-9.733-1.047l-36.603-21.133c1.337-4.101,2.07-8.471,2.07-13.013c0-19.754-13.689-36.363-32.077-40.864v-35.322C178.449,142.769,192.138,126.16,192.138,106.406z M134.477,121.99c-4.163-4.163-6.456-9.697-6.456-15.583c0-5.886,2.293-11.42,6.456-15.582c4.164-4.163,9.698-6.455,15.584-6.455c12.152,0,22.039,9.886,22.04,22.037c0,12.152-9.888,22.038-22.04,22.039C144.175,128.444,138.64,126.152,134.477,121.99z M134.477,207.873c4.164-4.163,9.698-6.455,15.584-6.455c12.152,0,22.039,9.886,22.04,22.037c0,12.152-9.888,22.038-22.04,22.039c-5.886,0-11.42-2.292-15.583-6.455c-4.163-4.163-6.456-9.697-6.456-15.583C128.021,217.57,130.315,212.036,134.477,207.873z M28.507,301.685c-4.165-4.165-6.458-9.699-6.458-15.584c0-5.886,2.293-11.421,6.457-15.583c4.163-4.163,9.698-6.455,15.584-6.455c12.152,0,22.039,9.886,22.04,22.038c0,12.152-9.888,22.038-22.04,22.039C38.205,308.139,32.671,305.847,28.507,301.685z M44.089,427.839c-5.886,0-11.42-2.292-15.583-6.455c-4.164-4.163-6.457-9.697-6.457-15.583c0-5.886,2.293-11.421,6.457-15.583c4.163-4.163,9.698-6.455,15.584-6.455c12.152,0,22.039,9.886,22.04,22.038C66.13,417.952,56.242,427.838,44.089,427.839z M226.374,380.945c-7.949,7.948-12.326,18.514-12.326,29.752c0,3.364,0.401,6.665,1.163,9.857l-34.981,20.196c-7.664-7.996-18.437-12.99-30.36-12.989c-0.001,0,0,0-0.001,0c-11.683,0-22.469,4.912-30.194,12.865l-35.94-20.75c1.569-4.404,2.43-9.142,2.43-14.078c0-19.742-13.671-36.342-32.039-40.856v-37.988c18.369-4.514,32.039-21.115,32.039-40.857c0-4.037-0.584-7.94-1.65-11.638l36.178-20.888c7.903,7.71,18.306,11.958,29.368,11.958c11.444,0,21.83-4.598,29.423-12.037l36.54,21.096c-3.773,14.138,0.043,29.627,10.955,40.539c5.454,5.454,12.046,9.083,19.018,10.911v43.808C238.633,371.658,231.875,375.445,226.374,380.945z M256.126,432.736c-5.886,0-11.42-2.292-15.583-6.455c-4.163-4.163-6.456-9.698-6.456-15.583s2.293-11.42,6.456-15.582c4.164-4.163,9.698-6.455,15.584-6.455c12.152,0,22.039,9.886,22.04,22.038C278.166,422.849,268.279,432.735,256.126,432.736z M361.936,491.964c-5.886,0-11.42-2.292-15.583-6.455c-4.163-4.163-6.456-9.698-6.456-15.583s2.293-11.42,6.456-15.582c4.164-4.163,9.698-6.455,15.584-6.455c12.152,0,22.039,9.886,22.04,22.038C383.976,482.077,374.089,491.964,361.936,491.964z M438.157,376.061c-7.948,7.948-12.326,18.514-12.326,29.752c0,5.009,0.876,9.882,2.544,14.452l-35.921,20.739c-7.673-8.092-18.512-13.154-30.517-13.153c-0.001,0-0.001,0-0.001,0c-11.238,0-21.803,4.377-29.75,12.323c-0.345,0.345-0.673,0.7-1.005,1.055l-34.507-19.315c0.99-3.574,1.53-7.331,1.53-11.216c0-19.788-13.736-36.419-32.17-40.886v-43.425c7.499-1.688,14.624-5.435,20.449-11.26c10.968-10.968,14.697-26.935,10.7-41.238l35.324-20.394c7.912,7.761,18.35,12.036,29.45,12.036c11.55,0,22.027-4.682,29.638-12.242l36.508,21.078c-1.487,4.342-2.269,8.943-2.269,13.667c0,11.238,4.378,21.804,12.326,29.751c5.718,5.717,12.794,9.575,20.498,11.296v35.686C450.951,366.486,443.874,370.343,438.157,376.061z M467.907,427.851c-5.886,0-11.42-2.292-15.583-6.455c-4.163-4.163-6.456-9.698-6.456-15.583s2.293-11.42,6.456-15.582c4.164-4.163,9.698-6.455,15.584-6.455c12.152,0,22.039,9.886,22.04,22.038C489.948,417.964,480.06,427.85,467.907,427.851z"></path></g></g></svg>